# xmcd
# 
# Track frame offsets:
#     150
#     20020
#     37987
# 
# Disc length: 767
# 
# Revision: 1
# Processed by: cddbd v1.5.2PL0 Copyright (c) Steve Scherf et al.
# Submitted via: BonkEnc v1.0
# 
DISCID=1b02fd03
DTITLE=SEPIA'N ROSES - だけど、悲しくて
DYEAR=1993
DGENRE=JPop
TTITLE0=だけど、悲しくて
TTITLE1=愛されて
TTITLE2=だけど、悲しくて(カラオケ)
EXTD=YEAR: 1993
EXTT0=
EXTT1=
EXTT2=
PLAYORDER=
